# xmcd CD database file
#
# Track frame offsets:
#	150
#	18275
#	37635
#	61228
#	83175
#	105705
#	126093
#	144978
#	166273
#	183998
#
# Disc length: 2746 seconds
#
# Revision: 0
# Processed by: cddbd v1.5.1PL0 Copyright (c) Steve Scherf et al.
# Submitted via: CDex 1.51
#
DISCID=720ab80a
DTITLE=立川亮子 - TREASURE
DYEAR=1993
DGENRE=Soul
TTITLE0=男はあいつだけじゃない
TTITLE1=WILD DREAM
TTITLE2=ONE WAY
TTITLE3=Chains around your Heart
TTITLE4=Welcome
TTITLE5=トレジャー
TTITLE6=Ride
TTITLE7=BEST FRIEND
TTITLE8=シ・ゲ・キ・テ・キ
TTITLE9=Circulation〜時のめぐり〜
EXTD=YEAR: 1993
EXTT0=
EXTT1=
EXTT2=
EXTT3=
EXTT4=
EXTT5=
EXTT6=
EXTT7=
EXTT8=
EXTT9=
PLAYORDER=
